<svg id="Layer_1" data-name="Layer 1" xmlns="http://www.w3.org/2000/svg" viewBox="0 0 256 256"><defs><style>.cls-1{fill:#006db3;}.cls-2{fill:#f2bd42;}</style></defs><title>favicon-flat-r4</title><path class="cls-1" d="M131,161.35a33,33,0,1,1,33-33A33,33,0,0,1,131,161.35Z"/><path class="cls-2" d="M131,107.28A21.07,21.07,0,1,0,152,128.35,21.09,21.09,0,0,0,131,107.28Z"/><path class="cls-1" d="M220.37,193.51c4.91.43,6.74-7.17,2.31-9.61l-4-2.37-11-6.53h0l-21.1-12.46a17.63,17.63,0,0,0-20.26,1.7c-.42.41-.85.8-1.28,1.2l-.42.41h0A50.64,50.64,0,0,1,144.23,177l-.08,0a51,51,0,0,1-19,1.49,50,50,0,0,1-44.77-44.7,50.74,50.74,0,0,1,84.22-43.63h0l.05,0h0l0,0c.38.35.72.74,1.1,1.1a17.63,17.63,0,0,0,20.79,2.14h0L199.18,86l8.44-5,7.15-4.22,3.17-1.87,4.74-2.8c4.13-2.19,2.93-8.52-.91-9.51-.81-.05-1.67-.07-2.49-.06-1.33.06-2.53.06-3.1.06h0a85.92,85.92,0,0,1-77.8-49.43,8.91,8.91,0,0,0-16.2,0,87.14,87.14,0,0,1-5.28,9.57A85.89,85.89,0,0,1,57,61.7a86.5,86.5,0,0,1-12.65.93c-1.57,0-3.12,0-4.66-.13a10.18,10.18,0,0,0-1.36,0,8.62,8.62,0,0,0-7.62,8.81,9.1,9.1,0,0,0,1.83,5.42c.72,1,1.41,1.94,2.09,2.92A85.25,85.25,0,0,1,49.6,128a85.22,85.22,0,0,1-17,51.2c-4.49,6-.31,14.73,7.19,14.33,1.52-.08,3-.12,4.58-.13a85.75,85.75,0,0,1,75.24,44.4c.9,1.63,1.76,3.29,2.56,5a9.17,9.17,0,0,0,1.49,2.28,8.9,8.9,0,0,0,14.71-2.28,85.84,85.84,0,0,1,77.8-49.39C217.53,193.41,219,193.38,220.37,193.51Z"/></svg>